<svg width="25" height="26" viewBox="0 0 25 26" fill="none" xmlns="http://www.w3.org/2000/svg">
<g clip-path="url(#clip0)">
<path d="M13.0868 16.6998C13.2263 15.8702 12.7923 15.1489 11.9811 14.8622C11.8701 14.823 11.7565 14.7818 11.6432 14.7388V12.8756C12.0568 12.8788 12.3351 12.9889 12.3452 12.9929C12.5305 13.071 12.7447 12.9849 12.8241 12.7996C12.9037 12.6137 12.8175 12.3985 12.6316 12.3188C12.6081 12.3088 12.2185 12.1461 11.6432 12.1428V11.8301C11.6432 11.6278 11.4793 11.4639 11.277 11.4639C11.0748 11.4639 10.9108 11.6278 10.9108 11.8301V12.2268C10.8527 12.2407 10.7939 12.2562 10.7341 12.2742C10.2004 12.435 9.80155 12.8919 9.69331 13.4666C9.59463 13.9904 9.76215 14.4952 10.1306 14.7842C10.3278 14.9388 10.5735 15.0804 10.9108 15.2303V17.4978C10.6141 17.4773 10.4111 17.4067 10.0763 17.1877C9.90697 17.0771 9.68007 17.1245 9.56938 17.2937C9.45864 17.463 9.5061 17.6899 9.67539 17.8007C10.1568 18.1156 10.4848 18.2079 10.9108 18.2309V18.6459C10.9108 18.8482 11.0748 19.0121 11.277 19.0121C11.4793 19.0121 11.6432 18.8482 11.6432 18.6459V18.2022C12.4858 18.0404 12.978 17.3472 13.0868 16.6998ZM10.5826 14.2079C10.4301 14.0884 10.3651 13.8563 10.413 13.6023C10.4564 13.372 10.6101 13.0948 10.9108 12.9876V14.4164C10.787 14.3499 10.6751 14.2805 10.5826 14.2079ZM12.3646 16.5783C12.3056 16.9286 12.0604 17.301 11.6432 17.4441V15.5191C11.6743 15.5303 11.7049 15.5414 11.737 15.5527C12.4377 15.8004 12.3944 16.4004 12.3646 16.5783Z" fill="#212529" fill-opacity="0.5"/>
<path d="M17.5898 19.9937C17.5318 19.9732 17.4728 19.952 17.4138 19.9301V18.7617C17.6305 18.7772 17.7718 18.8313 17.7799 18.8345C17.9654 18.9123 18.1789 18.8258 18.258 18.6408C18.3377 18.4549 18.2515 18.2396 18.0656 18.16C18.049 18.153 17.7953 18.047 17.4138 18.028V17.9009C17.4138 17.6986 17.2499 17.5347 17.0476 17.5347C16.8453 17.5347 16.6814 17.6986 16.6814 17.9009V18.1083C16.6631 18.1134 16.6448 18.1184 16.6263 18.124C16.2044 18.2511 15.8894 18.6111 15.8041 19.0635C15.7258 19.4791 15.8611 19.8815 16.1571 20.1136C16.2938 20.2209 16.4601 20.3192 16.6814 20.4212V21.8787C16.533 21.855 16.4169 21.8014 16.2365 21.6834C16.0673 21.5726 15.8403 21.6201 15.7296 21.7894C15.6189 21.9587 15.6663 22.1856 15.8356 22.2963C16.156 22.5059 16.3899 22.5876 16.6814 22.6156V22.8212C16.6814 23.0235 16.8453 23.1875 17.0476 23.1875C17.2499 23.1875 17.4138 23.0235 17.4138 22.8212V22.5808C17.9974 22.4277 18.3715 21.927 18.4545 21.4332C18.5621 20.793 18.2146 20.2146 17.5898 19.9937ZM16.609 19.5373C16.5302 19.4754 16.4968 19.3427 16.5239 19.199C16.542 19.1026 16.5927 18.9932 16.6814 18.9141V19.589C16.6558 19.572 16.6313 19.5548 16.609 19.5373ZM17.7322 21.3118C17.7021 21.4911 17.5941 21.6793 17.4138 21.7921V20.7119C17.7634 20.8712 17.7543 21.1805 17.7322 21.3118Z" fill="#212529" fill-opacity="0.5"/>
<path d="M24.9996 21.0911C24.9996 20.5659 24.5724 20.1386 24.0472 20.1386H22.6209V10.0068C22.6209 9.31571 22.0586 8.75342 21.3675 8.75342H1.25375C0.562656 8.75342 0.000366211 9.31571 0.000366211 10.0068V13.073C0.000366211 13.2753 0.164278 13.4392 0.366567 13.4392C0.568857 13.4392 0.732768 13.2753 0.732768 13.073V10.0068C0.732768 9.71955 0.966453 9.48582 1.25375 9.48582H6.22471C6.0397 11.4236 4.40332 12.9443 2.41798 12.9443C2.21569 12.9443 2.05177 13.1082 2.05177 13.3105V17.166C2.05177 17.3683 2.21569 17.5322 2.41798 17.5322C4.40332 17.5322 6.0397 19.0529 6.22471 20.9906H1.25375C0.966453 20.9906 0.732768 20.7569 0.732768 20.4696V14.5371C0.732768 14.3349 0.568857 14.1709 0.366567 14.1709C0.164278 14.1709 0.000366211 14.3349 0.000366211 14.5371V20.4696C0.000366211 21.1607 0.562656 21.723 1.25375 21.723H13.0836C13.6512 23.3804 15.2245 24.5751 17.0718 24.5751C17.1352 24.5751 17.1981 24.5734 17.2608 24.5707V24.6887C17.2608 25.2139 17.6881 25.6412 18.2132 25.6412H21.135C21.3373 25.6412 21.5012 25.4773 21.5012 25.275C21.5012 25.0727 21.3373 24.9088 21.135 24.9088H18.2132C18.0919 24.9088 17.9932 24.8101 17.9932 24.6887V24.4733C18.8249 24.2871 19.5646 23.8544 20.1311 23.2561H24.0472C24.1686 23.2561 24.2673 23.3548 24.2673 23.4761V24.6887C24.2673 24.81 24.1686 24.9088 24.0472 24.9088H22.5992C22.3969 24.9088 22.233 25.0727 22.233 25.275C22.233 25.4773 22.3969 25.6412 22.5992 25.6412H24.0472C24.5724 25.6412 24.9997 25.2139 24.9997 24.6887V23.4761C24.9997 23.255 24.9233 23.0517 24.7963 22.8899C24.9233 22.7281 24.9997 22.5248 24.9997 22.3036V21.0911H24.9996ZM21.8885 10.0068V20.1387H21.2802C21.228 19.1385 20.8255 18.2295 20.1933 17.5325C20.1966 17.5325 20.1999 17.5323 20.2032 17.5323C20.4055 17.5323 20.5694 17.3684 20.5694 17.1661V13.3105C20.5694 13.1082 20.4055 12.9443 20.2032 12.9443C18.2179 12.9443 16.5816 11.4236 16.3965 9.48587H21.3675C21.6548 9.48582 21.8885 9.71955 21.8885 10.0068ZM6.95926 20.9906C6.78163 18.7695 5.00536 16.9919 2.78418 16.8144V13.6621C5.00536 13.4846 6.78163 11.707 6.95926 9.48582H15.662C15.8396 11.707 17.6159 13.4846 19.837 13.6621V16.8144C19.6989 16.8255 19.5613 16.8429 19.4251 16.8664C18.7526 16.412 17.9426 16.1465 17.0718 16.1465C14.748 16.1465 12.8575 18.037 12.8575 20.3608C12.8575 20.5748 12.8736 20.7851 12.9046 20.9906H6.95926V20.9906ZM17.0718 23.8427C15.1519 23.8427 13.5899 22.2807 13.5899 20.3608C13.5899 18.4409 15.1519 16.8789 17.0718 16.8789C18.9917 16.8789 20.5537 18.4409 20.5537 20.3608C20.5537 22.2807 18.9917 23.8427 17.0718 23.8427ZM20.6873 22.5237C20.9843 22.0293 21.1826 21.4693 21.2551 20.871H24.0472C24.1686 20.871 24.2673 20.9697 24.2673 21.0911V22.3036C24.2673 22.425 24.1686 22.5237 24.0472 22.5237H20.6873Z" fill="#212529" fill-opacity="0.5"/>
<path d="M6.96429 5.88955L7.39045 5.45656V7.30631C7.39045 7.5086 7.55437 7.67251 7.75665 7.67251C7.95894 7.67251 8.12286 7.5086 8.12286 7.30631V5.45661L8.54901 5.8896C8.62074 5.96245 8.71532 5.99893 8.81004 5.99893C8.90276 5.99893 8.99558 5.96392 9.06692 5.89375C9.21106 5.75186 9.21291 5.52003 9.07107 5.3759L8.01773 4.30561C7.94889 4.23564 7.85484 4.19629 7.7567 4.19629C7.65856 4.19629 7.56452 4.23569 7.49568 4.30561L6.44234 5.3759C6.3005 5.52003 6.30235 5.75186 6.44649 5.89375C6.59057 6.03559 6.82245 6.03369 6.96429 5.88955Z" fill="#212529" fill-opacity="0.5"/>
<path d="M16.451 5.8896L16.8772 5.4566V7.30635C16.8772 7.50864 17.0411 7.67255 17.2434 7.67255C17.4457 7.67255 17.6096 7.50864 17.6096 7.30635V5.45665L18.0358 5.88965C18.1075 5.9625 18.2021 5.99897 18.2968 5.99897C18.3895 5.99897 18.4823 5.96396 18.5537 5.8938C18.6978 5.75191 18.6997 5.52008 18.5578 5.37594L17.5044 4.30561C17.4356 4.23564 17.3415 4.19629 17.2434 4.19629C17.1453 4.19629 17.0512 4.23569 16.9824 4.30561L15.929 5.37589C15.7872 5.52003 15.789 5.75186 15.9332 5.89375C16.0773 6.03564 16.3092 6.03373 16.451 5.8896Z" fill="#212529" fill-opacity="0.5"/>
<path d="M10.1069 4.17678H10.6963V6.76934C10.6963 7.11054 10.9739 7.38812 11.3151 7.38812H13.685C14.0262 7.38812 14.3038 7.11054 14.3038 6.76934V4.17678H14.8932C15.1472 4.17678 15.3725 4.02454 15.4673 3.78895C15.562 3.55336 15.505 3.28745 15.3218 3.11168L12.9286 0.81418C12.6882 0.583376 12.3118 0.583473 12.0716 0.81418L11.3775 1.48047C11.2316 1.62051 11.2269 1.85233 11.3669 1.99823C11.507 2.14403 11.7388 2.14891 11.8847 2.00878L12.5001 1.41802L14.6108 3.44433H14.1902C13.849 3.44433 13.5714 3.72191 13.5714 4.06307V6.65567H11.4287V4.06311C11.4287 3.72196 11.1511 3.44438 10.8099 3.44438H10.3893L10.8282 3.02296C10.9741 2.88287 10.9789 2.65109 10.8388 2.5052C10.6987 2.3593 10.4669 2.35457 10.321 2.49465L9.67841 3.11163C9.49521 3.2875 9.43804 3.55336 9.53286 3.78895C9.62768 4.02454 9.85297 4.17678 10.1069 4.17678Z" fill="#212529" fill-opacity="0.5"/>
</g>
<defs>
<clipPath id="clip0">
<rect width="25" height="25" fill="white" transform="translate(0 0.641113)"/>
</clipPath>
</defs>
</svg>
